<mxfile host="app.diagrams.net" modified="2023-06-13T02:41:03.628Z" agent="Mozilla/5.0 (Windows NT 10.0; Win64; x64) AppleWebKit/537.36 (KHTML, like Gecko) Chrome/113.0.0.0 Safari/537.36" version="21.3.8" etag="kdUyNwOFyE4f7dciRdTW" type="github">
  <diagram name="第 1 页" id="eLuBhVXs476KHWm5FN70">
    <mxGraphModel>
      <root>
        <mxCell id="0" />
        <mxCell id="1" parent="0" />
      </root>
    </mxGraphModel>
  </diagram>
</mxfile>
